<svg xmlns="http://www.w3.org/2000/svg" width="12.81" height="12.806" viewBox="0 0 12.81 12.806">
  <path id="instagram-filled" d="M7.749,6.564A1.262,1.262,0,1,0,6.487,7.821,1.261,1.261,0,0,0,7.749,6.564ZM9.625.022H3.218a3.2,3.2,0,0,0-3.2,3.187V4.1H4.727a3.041,3.041,0,0,1,3.52,0h4.58V3.209A3.2,3.2,0,0,0,9.625.022Zm1.3,3.032a.356.356,0,0,1-.356.354h-1.1a.356.356,0,0,1-.356-.354V1.959a.356.356,0,0,1,.356-.354h1.1a.356.356,0,0,1,.356.354ZM9.528,6.564a3.041,3.041,0,0,1-6.082,0,3,3,0,0,1,.289-1.286H.016V9.641a3.2,3.2,0,0,0,3.2,3.187H9.625a3.2,3.2,0,0,0,3.2-3.187V5.278H9.239a3,3,0,0,1,.289,1.286Z" transform="translate(-0.016 -0.022)" fill="#fff"/>
</svg>
