<svg xmlns="http://www.w3.org/2000/svg" width="12.806" height="12.806" viewBox="0 0 12.806 12.806">
  <path id="linkedin-rect" d="M2.516.009A2.517,2.517,0,0,0,.007,2.519v7.787a2.517,2.517,0,0,0,2.51,2.509H10.3a2.516,2.516,0,0,0,2.509-2.509V2.519A2.517,2.517,0,0,0,10.3.009Zm.631,2.113a1.008,1.008,0,1,1-.013,2.01H3.122a1.008,1.008,0,1,1,.025-2.01Zm5.7,2.669c1.273,0,2.226.832,2.226,2.619v3.337H9.142V7.634c0-.782-.28-1.316-.98-1.316a1.059,1.059,0,0,0-.993.707,1.321,1.321,0,0,0-.064.472v3.25H5.172s.025-5.273,0-5.819H7.106v.824A1.92,1.92,0,0,1,8.85,4.791Zm-6.682.137H4.1v5.819H2.168Z" transform="translate(-0.007 -0.009)" fill="#fff"/>
</svg>
