<svg xmlns="http://www.w3.org/2000/svg" width="23.88" height="16.716" viewBox="0 0 23.88 16.716">
  <g id="menu-left" transform="translate(-3 -7.5)">
    <path id="Path_3" data-name="Path 3" d="M3,8.688A1.188,1.188,0,0,1,4.188,7.5h9.564a1.188,1.188,0,1,1,0,2.376H4.188A1.188,1.188,0,0,1,3,8.688Z" transform="translate(0)"/>
    <path id="Path_4" data-name="Path 4" d="M3,17.7a1.188,1.188,0,0,1,1.188-1.188h21.5a1.188,1.188,0,0,1,0,2.376H4.188A1.188,1.188,0,0,1,3,17.7Z" transform="translate(0 -1.838)"/>
    <path id="Path_5" data-name="Path 5" d="M4.188,25.515a1.188,1.188,0,1,0,0,2.376h14.34a1.188,1.188,0,0,0,0-2.376Z" transform="translate(0 -3.675)"/>
  </g>
</svg>
