<svg xmlns="http://www.w3.org/2000/svg" width="12.806" height="12.806" viewBox="0 0 12.806 12.806">
  <path id="squaretwitter" d="M11.22,12.806h-9.6a1.543,1.543,0,0,1-1.132-.469A1.539,1.539,0,0,1,.015,11.2V1.6A1.543,1.543,0,0,1,.484.469,1.541,1.541,0,0,1,1.616,0h9.6a1.543,1.543,0,0,1,1.132.469A1.541,1.541,0,0,1,12.821,1.6v9.6a1.6,1.6,0,0,1-1.6,1.6ZM10.182,3.2a1.922,1.922,0,0,0-.225.144q-.15.106-.244.163a2.379,2.379,0,0,1-.231.119,1.2,1.2,0,0,1-.263.088A1.474,1.474,0,0,0,8.081,3.2q-1.463,0-1.463,1.226v.75A3.99,3.99,0,0,1,3.529,3.689a1.01,1.01,0,0,0-.313.713,1.424,1.424,0,0,0,.613,1.25q-.088,0-.219.012a.9.9,0,0,1-.213,0A.623.623,0,0,1,3.216,5.6a1.479,1.479,0,0,0,.306.957,1.412,1.412,0,0,0,.844.494.431.431,0,0,1-.35.15.567.567,0,0,1-.35-.113.834.834,0,0,0,.469.757,2.182,2.182,0,0,0,1.057.281,1.354,1.354,0,0,1-.657.506,2.5,2.5,0,0,1-.919.169,1.875,1.875,0,0,1-.481-.088q-.306-.088-.319-.088a1.633,1.633,0,0,0,.819.688A3.73,3.73,0,0,0,5.2,9.6,4.124,4.124,0,0,0,6.768,9.31a3.894,3.894,0,0,0,1.238-.782,5.113,5.113,0,0,0,.882-1.113,5.233,5.233,0,0,0,.55-1.294A5.03,5.03,0,0,0,9.619,4.8q0-.025.15-.106t.35-.213a.96.96,0,0,0,.3-.294q-.675,0-.9.025A1.681,1.681,0,0,0,10.181,3.2Z" transform="translate(-0.015 0)" fill="#fff"/>
</svg>
